<svg id="Layer_1" data-name="Layer 1" xmlns="http://www.w3.org/2000/svg" viewBox="0 0 1024 500"><defs><style>.cls-1{fill:#14b8a6;}.cls-2{fill:#0f172a;}</style></defs><polygon class="cls-1" points="322.65 136.85 322.65 178.61 279.99 195.85 236.72 178.87 236.72 138.27 279.76 120.02 322.65 136.85"/><polygon class="cls-1" points="322.65 193.39 322.65 240.48 279.99 257.73 236.72 240.74 236.72 193.65 279.99 210.63 322.65 193.39"/><polygon class="cls-2" points="322.65 255.26 322.65 301.62 279.99 318.86 236.72 301.88 236.72 255.53 279.99 272.51 322.65 255.26"/><polygon class="cls-2" points="218.48 197.97 218.48 239.72 175.81 256.96 132.54 239.99 132.54 199.38 175.59 181.14 218.48 197.97"/><polygon class="cls-2" points="218.48 254.51 218.48 301.6 175.81 318.85 132.54 301.86 132.54 254.77 175.81 271.75 218.48 254.51"/><polygon class="cls-2" points="113.86 259.1 113.86 300.85 71.2 318.09 27.93 301.11 27.93 260.51 70.98 242.27 113.86 259.1"/><polygon class="cls-2" points="113.86 315.64 113.86 362.73 71.2 379.98 27.93 362.99 27.93 315.9 71.2 332.87 113.86 315.64"/><polygon class="cls-2" points="218.48 316.38 218.48 362.74 175.81 379.98 132.54 363 132.54 316.64 175.81 333.63 218.48 316.38"/><polygon class="cls-2" points="322.65 316.4 322.65 362.73 279.99 379.98 236.72 362.99 236.72 316.67 279.99 333.64 322.65 316.4"/><path class="cls-2" d="M424.42,297.2q-8.9,7.19-23.15,7.19-13.12,0-22.08-5.87a31.37,31.37,0,0,1-12.61-16l14.88-8.7q5.18,13.5,20.32,13.5,7.31,0,10.72-2.65a8.34,8.34,0,0,0-.76-13.94q-4.15-2.59-14.88-5.62a89.69,89.69,0,0,1-10-3.53,42.89,42.89,0,0,1-8.2-4.73,19.27,19.27,0,0,1-6.25-7.51,24.54,24.54,0,0,1-2.15-10.59q0-12,8.52-19.12a30.91,30.91,0,0,1,20.5-7.13,34.08,34.08,0,0,1,18.86,5.24,35.18,35.18,0,0,1,12.68,14.57l-14.63,8.45q-5.31-11.34-16.91-11.35c-3.62,0-6.45.82-8.51,2.46a7.77,7.77,0,0,0-3.1,6.37,8,8,0,0,0,3.48,6.75q3.47,2.58,13.31,5.62,4,1.26,6.11,1.95c1.39.46,3.28,1.18,5.68,2.14a34.18,34.18,0,0,1,5.55,2.72,43.59,43.59,0,0,1,4.48,3.4,17.53,17.53,0,0,1,3.85,4.42,25.22,25.22,0,0,1,3.21,12.49Q433.31,290,424.42,297.2Z"/><path class="cls-2" d="M443.16,214.21a9.48,9.48,0,0,1,7-3,9.6,9.6,0,0,1,7.13,3,9.77,9.77,0,0,1,3,7.06,9.58,9.58,0,0,1-3,7,9.73,9.73,0,0,1-7.13,3,10.11,10.11,0,0,1-10-10A9.8,9.8,0,0,1,443.16,214.21Zm15.2,87.68H442.09V238.81h16.27Z"/><path class="cls-2" d="M498,237q13.24,0,20.44,9.21V213.58h16.28v88.31H518.48v-7.44q-7.18,9.21-20.44,9.21A28.73,28.73,0,0,1,476.28,294q-9-9.66-9-23.66t9-23.65A28.7,28.7,0,0,1,498,237Zm3,15.52a17,17,0,0,0-12.55,5,18.94,18.94,0,0,0,0,25.62,17,17,0,0,0,12.55,5,16.81,16.81,0,0,0,12.49-5,19.14,19.14,0,0,0,0-25.62A16.81,16.81,0,0,0,501.07,252.56Z"/><path class="cls-2" d="M574.94,237q13.88,0,22.9,9.59t9,23.72a38.25,38.25,0,0,1-.63,6.69H558.67q3.27,11.85,17.79,11.86,9.33,0,14.13-6.31l13.12,7.57q-9.35,13.5-27.51,13.5-15.65,0-25.1-9.46t-9.46-23.85q0-14.25,9.33-23.78T574.94,237Zm9.91,17.79a16.51,16.51,0,0,0-9.91-3.15A17.12,17.12,0,0,0,564.09,255a16,16,0,0,0-5.68,9.4h32.18Q589.19,258,584.85,254.83Z"/><path class="cls-2" d="M671.59,297.2q-8.9,7.19-23.15,7.19-13.12,0-22.08-5.87a31.37,31.37,0,0,1-12.61-16l14.88-8.7q5.18,13.5,20.32,13.5,7.31,0,10.72-2.65a8.34,8.34,0,0,0-.76-13.94q-4.15-2.59-14.88-5.62a89.69,89.69,0,0,1-10-3.53,42.89,42.89,0,0,1-8.2-4.73,19.27,19.27,0,0,1-6.25-7.51,24.54,24.54,0,0,1-2.14-10.59q0-12,8.51-19.12a30.91,30.91,0,0,1,20.5-7.13,34.08,34.08,0,0,1,18.86,5.24A35.18,35.18,0,0,1,678,232.35l-14.63,8.45q-5.31-11.34-16.91-11.35-5.42,0-8.51,2.46a7.77,7.77,0,0,0-3.1,6.37,8,8,0,0,0,3.48,6.75q3.47,2.58,13.31,5.62,4,1.26,6.11,1.95c1.39.46,3.28,1.18,5.68,2.14a34.18,34.18,0,0,1,5.55,2.72,42.53,42.53,0,0,1,4.48,3.4,17.53,17.53,0,0,1,3.85,4.42,25.35,25.35,0,0,1,3.22,12.49Q680.49,290,671.59,297.2Z"/><path class="cls-2" d="M698.34,238.81V226.07l16.28-4.92v17.66h14.25v15.64H714.62V280.7q0,3.27,1.64,4.79a7.48,7.48,0,0,0,4.79,1.7,69.15,69.15,0,0,0,7.82-.06v14.76q-16.77,1.89-23.65-3.15t-6.88-18V254.45h-11V238.81Z"/><path class="cls-2" d="M787.12,301.89v-7.44q-7.32,9.21-20.57,9.21-12.62,0-21.63-9.65t-9-23.66q0-14,9-23.65T766.55,237q13.25,0,20.57,9.21v-7.44h16.27v63.08Zm0-31.54a17.34,17.34,0,0,0-5-12.81,17,17,0,0,0-12.55-5,16.81,16.81,0,0,0-12.49,5,19.14,19.14,0,0,0,0,25.62,16.81,16.81,0,0,0,12.49,5,17,17,0,0,0,12.55-5A17.32,17.32,0,0,0,787.12,270.35Z"/><path class="cls-2" d="M843.58,303.66a33.31,33.31,0,1,1,28.53-50.5l-13.85,8.11a17.23,17.23,0,1,0,0,18l13.91,8.15A33.3,33.3,0,0,1,843.58,303.66Z"/><path class="cls-2" d="M895.33,213.58v53.09L917,238.81h19.43L911.1,270l26.12,31.92H918.3l-23-28.66v28.66H879.06V213.58Z"/><path class="cls-2" d="M953.74,242.41q6.87-5.37,17.09-5.37a28.61,28.61,0,0,1,14,3.47,25.46,25.46,0,0,1,10,9.91L980.93,258a10.39,10.39,0,0,0-10.1-6.44,9.2,9.2,0,0,0-5.23,1.39,4.33,4.33,0,0,0-2.08,3.79c0,1.68,1.11,3,3.34,4.1A44.74,44.74,0,0,0,975,263.6a84.89,84.89,0,0,1,9.59,3,18.64,18.64,0,0,1,8.13,6.12,16.9,16.9,0,0,1,3.35,10.72q0,9.72-7.26,14.95t-18.1,5.24q-19.43,0-26.49-15l14.12-7.94q2.77,8.19,12.37,8.2,8.7,0,8.7-5.43,0-2.52-3.34-4.1a47.68,47.68,0,0,0-8.14-2.84,85.85,85.85,0,0,1-9.59-3.15,19.72,19.72,0,0,1-8.13-6,15.77,15.77,0,0,1-3.35-10.29Q946.86,247.77,953.74,242.41Z"/></svg>